HIERARCHY
ROOT Hips
{
	OFFSET 0.000000 0.000000 0.000000
	CHANNELS 6 Xposition Yposition Zposition Zrotation Yrotation Xrotation 
	JOINT LeftUpLeg_virtual
	{
		OFFSET 0.000000 0.000000 0.000000
		CHANNELS 3 Zrotation Yrotation Xrotation
		JOINT LeftUpLeg
		{
			OFFSET 10.205400 -3.823500 0.155100
			CHANNELS 3 Zrotation Yrotation Xrotation
			JOINT LeftLeg
			{
				OFFSET 0.708757 -12.982077 0.567790
				CHANNELS 3 Zrotation Yrotation Xrotation
				JOINT LeftFoot
				{
					OFFSET -0.708756 -10.717838 -2.184338
					CHANNELS 3 Zrotation Yrotation Xrotation
					JOINT LeftToeBase
					{
						OFFSET 0.108149 -7.191104 7.560241
						CHANNELS 3 Zrotation Yrotation Xrotation
						End Site
						{
							OFFSET 0.000000 0.000000 0.000000
						}
					}
				}
			}
		}
	}
	JOINT RightUpLeg_virtual
	{
		OFFSET 0.000000 0.000000 0.000000
		CHANNELS 3 Zrotation Yrotation Xrotation
		JOINT RightUpLeg
		{
			OFFSET -10.205400 -3.823500 0.005500
			CHANNELS 3 Zrotation Yrotation Xrotation
			JOINT RightLeg
			{
				OFFSET -0.708756 -12.982134 0.610632
				CHANNELS 3 Zrotation Yrotation Xrotation
				JOINT RightFoot
				{
					OFFSET 0.708754 -10.717769 -1.945823
					CHANNELS 3 Zrotation Yrotation Xrotation
					JOINT RightToeBase
					{
						OFFSET -0.108140 -7.191069 7.372968
						CHANNELS 3 Zrotation Yrotation Xrotation
						End Site
						{
							OFFSET 0.000000 0.000000 0.000000
						}
					}
				}
			}
		}
	}
	JOINT Spine_virtual
	{
		OFFSET 0.000000 0.000000 0.000000
		CHANNELS 3 Zrotation Yrotation Xrotation
		JOINT Spine
		{
			OFFSET 0.000000 6.876099 0.125700
			CHANNELS 3 Zrotation Yrotation Xrotation
			JOINT Spine1
			{
				OFFSET 0.000000 8.022060 0.146608
				CHANNELS 3 Zrotation Yrotation Xrotation
				JOINT Spine2
				{
					OFFSET 0.000000 9.168068 0.167552
					CHANNELS 3 Zrotation Yrotation Xrotation
					JOINT Neck_virtual
					{
						OFFSET 0.000000 0.000000 0.000000
						CHANNELS 3 Zrotation Yrotation Xrotation
						JOINT Neck
						{
							OFFSET 0.000000 10.314075 0.188496
							CHANNELS 3 Zrotation Yrotation Xrotation
							JOINT Head
							{
								OFFSET 0.000000 7.643700 -2.377400
								CHANNELS 3 Zrotation Yrotation Xrotation
								End Site
								{
									OFFSET 0.000000 0.000000 0.000000
								}
							}
						}
					}
					JOINT LeftShoulder_virtual
					{
						OFFSET 0.000000 0.000000 0.000000
						CHANNELS 3 Zrotation Yrotation Xrotation
						JOINT LeftShoulder
						{
							OFFSET 4.392200 8.824978 0.174984
							CHANNELS 3 Zrotation Yrotation Xrotation
							JOINT LeftArm
							{
								OFFSET 8.771219 -2.981674 -0.026999
								CHANNELS 3 Zrotation Yrotation Xrotation
								JOINT LeftForeArm
								{
									OFFSET 8.512804 0.000000 -0.000000
									CHANNELS 3 Zrotation Yrotation Xrotation
									JOINT LeftHand
									{
										OFFSET 18.484802 0.000000 -0.000000
										CHANNELS 3 Zrotation Yrotation Xrotation
										End Site
										{
											OFFSET 0.000000 0.000000 0.000000
										}
									}
								}
							}
						}
					}
					JOINT RightShoulder_virtual
					{
						OFFSET 0.000000 0.000000 0.000000
						CHANNELS 3 Zrotation Yrotation Xrotation
						JOINT RightShoulder
						{
							OFFSET -4.392200 8.824993 0.141379
							CHANNELS 3 Zrotation Yrotation Xrotation
							JOINT RightArm
							{
								OFFSET -8.771282 -2.981682 -0.094208
								CHANNELS 3 Zrotation Yrotation Xrotation
								JOINT RightForeArm
								{
									OFFSET -8.494598 0.000000 0.000000
									CHANNELS 3 Zrotation Yrotation Xrotation
									JOINT RightHand
									{
										OFFSET -18.483803 0.000000 0.000001
										CHANNELS 3 Zrotation Yrotation Xrotation
										End Site
										{
											OFFSET 0.000000 0.000000 0.000000
										}
									}
								}
							}
						}
					}
				}
			}
		}
	}
}
MOTION
Frames: 10
Frame Time: 0.033333
-1.172939 35.315514 61.274120 -179.979692 1.281964 -179.947331 -1.945465 -3.300806 10.486810 -14.741515 -7.211969 -22.018508 20.621239 8.077708 27.539683 -9.553254 1.588745 1.000507 0.000000 0.000000 0.000000 2.008546 -0.532601 7.167351 -2.327074 -11.957499 -16.805178 -9.939699 -2.356022 44.093382 4.452263 14.445684 12.464830 0.000000 0.000000 0.000000 3.710710 0.041440 -0.512631 0.240272 2.386012 -8.311521 -0.650076 -3.354930 10.059365 -0.019069 0.006466 -0.008841 -0.953764 -1.897978 12.786949 1.853432 -1.860532 7.968797 0.000000 0.000000 0.000000 0.255121 -0.990764 9.814467 -8.667763 -4.571956 -3.166540 -61.146415 22.297783 -20.360236 2.047709 -24.593727 7.349311 0.000000 0.000000 0.000000 -2.693023 -0.195775 9.170118 23.108256 10.670838 0.303507 42.549128 26.600547 6.042349 -4.797315 20.535746 -1.960128 0.000000 0.000000 0.000000 
-0.407748 35.766838 59.584984 -179.914245 1.277323 -179.975239 -2.519645 -2.794616 10.643428 -13.071959 -6.778891 -18.107197 20.518798 7.525474 26.047575 -9.707201 1.229745 0.859081 0.000000 0.000000 0.000000 2.063720 0.155599 7.279090 -3.078053 -9.969598 -20.722102 -9.832864 -2.119344 37.818655 5.160744 14.538464 13.642517 0.000000 0.000000 0.000000 3.435670 0.764396 -0.191582 0.219194 1.759692 -8.143627 -0.680142 -3.365779 9.934249 -0.021752 -0.044477 0.008363 -0.933954 -1.824204 12.572765 1.681043 -2.194304 8.529398 0.000000 0.000000 0.000000 0.311677 -0.965323 9.556707 -9.042822 -6.014395 -2.861680 -59.051425 16.814010 -15.209860 1.463273 -28.203072 6.611049 0.000000 0.000000 0.000000 -2.661274 -0.119127 8.961908 23.060447 10.260324 -0.075298 43.583010 26.145136 7.089372 -4.612028 21.518084 -2.248487 0.000000 0.000000 0.000000 
0.375532 36.053539 57.901344 -179.819183 0.809302 -179.958204 -2.818133 -2.244254 10.606348 -11.655139 -6.300023 -15.016584 20.471965 6.801920 25.648463 -9.424984 0.696514 1.050969 0.000000 0.000000 0.000000 2.221261 0.838520 7.221868 -3.693754 -7.688998 -23.840569 -9.761980 -2.279274 29.378279 6.053979 14.476164 15.443770 0.000000 0.000000 0.000000 3.153592 1.169837 0.113712 0.309902 1.313252 -7.917584 -0.605254 -3.249705 9.798299 -0.009696 0.036679 0.034005 -0.881185 -1.712300 12.361855 1.455953 -2.570694 9.127797 0.000000 0.000000 0.000000 0.389278 -0.951985 9.293838 -9.284589 -7.613971 -2.657358 -56.847654 10.382680 -10.250237 0.878370 -31.440713 5.835930 0.000000 0.000000 0.000000 -2.644068 -0.049921 8.769473 22.822370 9.934194 -0.517037 44.282715 25.816541 7.795258 -4.338426 22.144988 -2.412953 0.000000 0.000000 0.000000 
1.174726 36.111889 56.148632 -179.841968 -0.530267 -179.817475 -2.779832 -2.223884 10.148876 -10.575786 -5.617676 -12.819075 20.505305 6.275338 26.766039 -9.096205 0.179398 1.777012 0.000000 0.000000 0.000000 2.356711 0.871569 6.840455 -3.904622 -5.374625 -25.800165 -9.580414 -2.401490 21.024656 6.658243 14.162428 17.316736 0.000000 0.000000 0.000000 2.837925 1.390914 0.045932 0.397857 0.866757 -7.786760 -0.538869 -3.228104 9.720260 -0.007872 0.006044 0.025865 -0.776700 -1.673584 12.291734 1.235380 -2.964224 9.707001 0.000000 0.000000 0.000000 0.475156 -0.998520 9.111657 -9.422122 -9.123079 -2.394360 -54.724650 3.476982 -6.596259 0.268543 -34.323111 5.013360 0.000000 0.000000 0.000000 -2.567706 -0.000823 8.698468 22.487884 9.732389 -0.689237 44.546384 25.802228 8.329197 -4.201818 22.632696 -2.644626 0.000000 0.000000 0.000000 
2.017851 35.986637 54.272259 179.922728 -1.525062 179.932864 -2.622635 -1.905267 9.789087 -9.655040 -4.795986 -11.084871 20.372899 5.461818 28.657705 -8.242193 -0.186357 3.854397 0.000000 0.000000 0.000000 2.747150 0.538525 5.989847 -4.259793 -2.689726 -26.711830 -9.077804 -1.204931 13.186785 7.459829 14.427545 20.171193 0.000000 0.000000 0.000000 2.427820 1.418285 -0.143194 0.350983 0.660096 -7.550118 -0.529578 -3.101942 9.744833 0.029561 0.048394 -0.047003 -0.703958 -1.605715 12.210221 1.074656 -3.364280 10.393710 0.000000 0.000000 0.000000 0.550951 -0.882932 8.941781 -9.414087 -10.248108 -2.362175 -52.712729 -3.057099 -4.445880 -0.259565 -36.990488 4.123237 0.000000 0.000000 0.000000 -2.549614 0.108375 8.638825 22.247839 9.642539 -0.840366 44.725670 25.805435 8.880068 -4.086234 23.154760 -2.876943 0.000000 0.000000 0.000000 
2.913805 35.776237 52.280315 179.835288 -3.101739 179.463016 -2.378757 -2.154113 9.546221 -8.270463 -4.306666 -9.473436 20.313281 4.894651 31.041086 -7.543843 -0.705997 6.724217 0.000000 0.000000 0.000000 3.636331 0.150011 4.982605 -4.846686 -0.232796 -26.449494 -9.623212 0.335234 9.641744 8.943913 15.259350 20.612008 0.000000 0.000000 0.000000 2.070375 1.160278 -0.595398 0.229603 0.555106 -7.306233 -0.584356 -3.020078 9.860643 0.081174 0.038448 -0.106841 -0.733574 -1.489373 12.203794 0.943434 -3.825279 11.241593 0.000000 0.000000 0.000000 0.547687 -0.828936 8.737612 -9.243474 -11.009472 -2.295461 -50.786152 -8.146799 -3.693330 -0.602372 -40.125989 3.117262 0.000000 0.000000 0.000000 -2.589125 0.180888 8.586269 22.266338 9.550875 -0.763650 44.989746 25.691174 9.223740 -3.961443 23.714340 -3.076320 0.000000 0.000000 0.000000 
3.837915 35.594723 50.255394 179.450462 -4.930965 179.177008 -2.851921 -2.700217 9.366404 -6.098397 -3.153706 -8.148240 20.081055 4.094292 33.578976 -6.877812 -1.616043 9.363187 0.000000 0.000000 0.000000 3.126989 -0.218272 4.162124 -3.688574 2.001433 -25.091395 -10.147428 3.056706 9.252075 8.402659 15.045606 19.098107 0.000000 0.000000 0.000000 1.421441 0.662750 -1.207150 -0.049412 0.502874 -7.201113 -0.722599 -2.981850 9.890547 0.095463 -0.030759 -0.096107 -0.796613 -1.375192 12.133880 1.001851 -4.271359 12.117306 0.000000 0.000000 0.000000 0.536313 -0.652677 8.640275 -8.937079 -11.200668 -2.113051 -48.946881 -11.280325 -3.496234 -0.764415 -43.611082 2.225231 0.000000 0.000000 0.000000 -2.672264 0.414658 8.614225 22.636200 9.553246 -0.617681 45.272218 25.496048 9.342831 -3.950899 24.278353 -3.198993 0.000000 0.000000 0.000000 
4.736224 35.522354 48.254581 179.841148 -6.837630 178.962964 -2.980976 -3.295938 9.179819 -3.222816 -1.461709 -7.537781 20.046101 4.068444 36.617320 -6.542288 -1.252568 12.152349 0.000000 0.000000 0.000000 2.634492 -0.863948 3.580704 -1.657102 4.239153 -23.140932 -9.845143 4.010642 10.927440 6.025703 13.993949 15.843725 0.000000 0.000000 0.000000 1.500337 0.130854 -1.822816 -0.254421 0.728526 -7.238615 -0.895228 -2.843152 10.114484 0.038353 -0.056418 -0.136306 -1.002798 -1.125140 12.171091 1.166861 -4.777094 12.978501 0.000000 0.000000 0.000000 0.373835 -0.508744 8.591051 -8.526492 -11.193971 -2.029419 -47.686284 -12.121194 -3.104484 -0.947199 -47.051585 1.648298 0.000000 0.000000 0.000000 -2.890046 0.551616 8.599950 23.311996 9.434205 -0.405729 45.605986 25.168807 9.120613 -3.984167 24.646912 -3.250233 0.000000 0.000000 0.000000 
5.545263 35.562023 46.335133 -179.811464 -9.024750 178.844105 -2.910716 -3.877244 9.032762 -0.909995 -0.141432 -8.076191 19.906655 3.944909 39.804601 -5.865391 -0.443182 14.371171 0.000000 0.000000 0.000000 2.155310 -1.841733 3.198637 0.347431 5.868063 -20.831179 -9.120269 4.778355 13.194530 3.312332 12.608944 12.026598 0.000000 0.000000 0.000000 1.433534 -0.536080 -2.224004 -0.223536 1.089616 -7.378938 -0.988016 -2.717097 10.242192 -0.025550 -0.022605 -0.249555 -1.201838 -0.939291 12.277696 1.431350 -5.327078 13.785119 0.000000 0.000000 0.000000 0.075571 -0.345821 8.694397 -8.212226 -10.946157 -1.800740 -47.133086 -10.805419 -1.926327 -0.979568 -49.937596 1.272038 0.000000 0.000000 0.000000 -3.216099 0.638943 8.578707 24.042920 9.165975 -0.216468 45.957645 24.869248 8.670566 -4.039767 25.054273 -3.275353 0.000000 0.000000 0.000000 
6.200591 35.683384 44.534096 -179.749091 -10.848155 178.978755 -2.776839 -4.426238 8.773656 0.421076 1.734091 -10.287203 19.699396 3.535031 43.993856 -4.646716 0.377845 15.917913 0.000000 0.000000 0.000000 2.184613 -3.218362 3.132199 2.253520 5.837291 -18.179387 -8.249953 5.256336 15.042568 1.123513 11.362614 8.876490 0.000000 0.000000 0.000000 1.512685 -1.306824 -2.466059 -0.292532 1.662352 -7.640062 -1.188055 -2.481632 10.201972 -0.036271 0.036459 -0.107124 -1.400696 -0.742209 12.200345 1.730917 -5.882581 14.532073 0.000000 0.000000 0.000000 -0.088162 -0.163348 8.672631 -8.202959 -10.646924 -1.514215 -47.328071 -7.773268 -0.032617 -0.917657 -50.974303 1.164209 0.000000 0.000000 0.000000 -3.426669 0.835992 8.458341 24.653383 8.884381 0.082151 46.112048 24.549609 8.076153 -4.211223 25.247113 -3.244566 0.000000 0.000000 0.000000 
